<mxfile host="app.diagrams.net" modified="2023-01-13T04:45:18.778Z" agent="5.0 (Windows NT 10.0; Win64; x64) AppleWebKit/537.36 (KHTML, like Gecko) Chrome/108.0.0.0 Safari/537.36" version="20.8.5" etag="OeIok-JzA1c8fX0IuCpe" type="github">
  <diagram id="dmxHqzSMfW8brnlgk5AA" name="Page-1">
    <mxGraphModel dx="2610" dy="1499" grid="1" gridSize="10" guides="1" tooltips="1" connect="1" arrows="1" fold="1" page="1" pageScale="1" pageWidth="850" pageHeight="1100" math="0" shadow="0">
      <root>
        <mxCell id="0" />
        <mxCell id="1" parent="0" />
        <mxCell id="xYQ31i3r8Yoy_3zGbQWG-4" value="" style="shape=cube;whiteSpace=wrap;html=1;boundedLbl=1;backgroundOutline=1;darkOpacity=0.05;darkOpacity2=0.1;size=110;" vertex="1" parent="1">
          <mxGeometry x="-750" y="160" width="170" height="320" as="geometry" />
        </mxCell>
      </root>
    </mxGraphModel>
  </diagram>
</mxfile>
